<svg width="24" height="29" viewBox="0 0 24 29" fill="none" xmlns="http://www.w3.org/2000/svg">
<path d="M22.2019 12.3729C22.2019 20.3075 12.0004 27.1085 12.0004 27.1085C12.0004 27.1085 1.79883 20.3075 1.79883 12.3729C1.79883 9.66731 2.87363 7.07251 4.78679 5.15935C6.69995 3.24619 9.29475 2.17139 12.0004 2.17139C14.706 2.17139 17.3008 3.24619 19.2139 5.15935C21.1271 7.07251 22.2019 9.66731 22.2019 12.3729Z" stroke="white" stroke-width="3" stroke-linecap="round" stroke-linejoin="round"/>
<path d="M12.0001 15.7734C13.8782 15.7734 15.4006 14.251 15.4006 12.3729C15.4006 10.4949 13.8782 8.97241 12.0001 8.97241C10.1221 8.97241 8.59961 10.4949 8.59961 12.3729C8.59961 14.251 10.1221 15.7734 12.0001 15.7734Z" stroke="white" stroke-width="3" stroke-linecap="round" stroke-linejoin="round"/>
</svg>
