<svg width="22" height="21" viewBox="0 0 22 21" fill="none" xmlns="http://www.w3.org/2000/svg">
<path d="M10.8097 1.84021C10.8693 1.65539 11.1307 1.65539 11.1903 1.84021L13.1888 8.0368C13.2155 8.11957 13.2926 8.17561 13.3796 8.17542L19.8904 8.16119C20.0846 8.16076 20.1654 8.40945 20.0081 8.52325L14.7323 12.3387C14.6618 12.3897 14.6324 12.4803 14.6594 12.563L16.6849 18.7508C16.7453 18.9354 16.5338 19.089 16.3769 18.9746L11.1179 15.1361C11.0477 15.0848 10.9523 15.0848 10.8821 15.1361L5.62306 18.9746C5.4662 19.089 5.25466 18.9354 5.31507 18.7508L7.34057 12.563C7.36763 12.4803 7.33817 12.3897 7.2677 12.3387L1.99194 8.52325C1.83459 8.40945 1.91539 8.16076 2.10958 8.16119L8.62044 8.17542C8.70741 8.17561 8.78453 8.11957 8.81122 8.0368L10.8097 1.84021Z" stroke="#FF7622" stroke-width="2"/>
</svg>
